<mxfile host="app.diagrams.net" agent="Mozilla/5.0 (Windows NT 10.0; Win64; x64) AppleWebKit/537.36 (KHTML, like Gecko) Chrome/140.0.0.0 Safari/537.36" version="28.2.7">
  <diagram name="Strona-1" id="ZFRBkoAJPbokdD1M1VAQ">
    <mxGraphModel dx="1271" dy="654" grid="1" gridSize="10" guides="1" tooltips="1" connect="1" arrows="1" fold="1" page="1" pageScale="1" pageWidth="827" pageHeight="1169" math="0" shadow="0">
      <root>
        <mxCell id="0" />
        <mxCell id="1" parent="0" />
        <mxCell id="OdpIeoZB1gtkTC5gq9g6-11" value="" style="whiteSpace=wrap;html=1;aspect=fixed;fillColor=light-dark(#b2c7f0, #6db2ff);fontColor=#ffffff;strokeColor=#001DBC;gradientColor=light-dark(#e1d5d5, #ededed);" vertex="1" parent="1">
          <mxGeometry x="260" y="430" width="740" height="740" as="geometry" />
        </mxCell>
        <mxCell id="OdpIeoZB1gtkTC5gq9g6-10" value="" style="group" vertex="1" connectable="0" parent="1">
          <mxGeometry x="860" y="650" width="120" height="80" as="geometry" />
        </mxCell>
        <mxCell id="OdpIeoZB1gtkTC5gq9g6-8" value="Liczenie frekwencji" style="ellipse;whiteSpace=wrap;html=1;" vertex="1" parent="OdpIeoZB1gtkTC5gq9g6-10">
          <mxGeometry width="120" height="80" as="geometry" />
        </mxCell>
        <mxCell id="OdpIeoZB1gtkTC5gq9g6-9" value="" style="endArrow=none;html=1;rounded=0;endFill=0;entryX=0.994;entryY=0.406;entryDx=0;entryDy=0;entryPerimeter=0;exitX=0.579;exitY=0.997;exitDx=0;exitDy=0;exitPerimeter=0;" edge="1" parent="OdpIeoZB1gtkTC5gq9g6-10" source="OdpIeoZB1gtkTC5gq9g6-8" target="OdpIeoZB1gtkTC5gq9g6-8">
          <mxGeometry width="50" height="50" relative="1" as="geometry">
            <mxPoint x="70" y="80" as="sourcePoint" />
            <mxPoint x="120" y="30" as="targetPoint" />
          </mxGeometry>
        </mxCell>
        <mxCell id="OdpIeoZB1gtkTC5gq9g6-12" value="" style="group" vertex="1" connectable="0" parent="1">
          <mxGeometry x="430" y="584" width="120" height="80" as="geometry" />
        </mxCell>
        <mxCell id="OdpIeoZB1gtkTC5gq9g6-13" value="Sprawdzanie planu zajęć" style="ellipse;whiteSpace=wrap;html=1;" vertex="1" parent="OdpIeoZB1gtkTC5gq9g6-12">
          <mxGeometry width="120" height="80" as="geometry" />
        </mxCell>
        <mxCell id="OdpIeoZB1gtkTC5gq9g6-14" value="" style="endArrow=none;html=1;rounded=0;endFill=0;entryX=0.994;entryY=0.406;entryDx=0;entryDy=0;entryPerimeter=0;exitX=0.579;exitY=0.997;exitDx=0;exitDy=0;exitPerimeter=0;" edge="1" parent="OdpIeoZB1gtkTC5gq9g6-12" source="OdpIeoZB1gtkTC5gq9g6-13" target="OdpIeoZB1gtkTC5gq9g6-13">
          <mxGeometry width="50" height="50" relative="1" as="geometry">
            <mxPoint x="70" y="80" as="sourcePoint" />
            <mxPoint x="120" y="30" as="targetPoint" />
          </mxGeometry>
        </mxCell>
        <mxCell id="OdpIeoZB1gtkTC5gq9g6-15" value="" style="group" vertex="1" connectable="0" parent="1">
          <mxGeometry x="420" y="675" width="120" height="80" as="geometry" />
        </mxCell>
        <mxCell id="OdpIeoZB1gtkTC5gq9g6-16" value="Przegląd ocen" style="ellipse;whiteSpace=wrap;html=1;" vertex="1" parent="OdpIeoZB1gtkTC5gq9g6-15">
          <mxGeometry width="120" height="80" as="geometry" />
        </mxCell>
        <mxCell id="OdpIeoZB1gtkTC5gq9g6-17" value="" style="endArrow=none;html=1;rounded=0;endFill=0;entryX=0.994;entryY=0.406;entryDx=0;entryDy=0;entryPerimeter=0;exitX=0.579;exitY=0.997;exitDx=0;exitDy=0;exitPerimeter=0;" edge="1" parent="OdpIeoZB1gtkTC5gq9g6-15" source="OdpIeoZB1gtkTC5gq9g6-16" target="OdpIeoZB1gtkTC5gq9g6-16">
          <mxGeometry width="50" height="50" relative="1" as="geometry">
            <mxPoint x="70" y="80" as="sourcePoint" />
            <mxPoint x="120" y="30" as="targetPoint" />
          </mxGeometry>
        </mxCell>
        <mxCell id="OdpIeoZB1gtkTC5gq9g6-18" value="" style="group" vertex="1" connectable="0" parent="1">
          <mxGeometry x="320" y="930" width="240" height="110" as="geometry" />
        </mxCell>
        <mxCell id="OdpIeoZB1gtkTC5gq9g6-19" value="Tworzenie planu zajęć" style="ellipse;whiteSpace=wrap;html=1;" vertex="1" parent="OdpIeoZB1gtkTC5gq9g6-18">
          <mxGeometry width="120" height="80" as="geometry" />
        </mxCell>
        <mxCell id="OdpIeoZB1gtkTC5gq9g6-20" value="" style="endArrow=none;html=1;rounded=0;endFill=0;entryX=0.994;entryY=0.406;entryDx=0;entryDy=0;entryPerimeter=0;exitX=0.579;exitY=0.997;exitDx=0;exitDy=0;exitPerimeter=0;" edge="1" parent="OdpIeoZB1gtkTC5gq9g6-18" source="OdpIeoZB1gtkTC5gq9g6-19" target="OdpIeoZB1gtkTC5gq9g6-19">
          <mxGeometry width="50" height="50" relative="1" as="geometry">
            <mxPoint x="70" y="80" as="sourcePoint" />
            <mxPoint x="120" y="30" as="targetPoint" />
          </mxGeometry>
        </mxCell>
        <mxCell id="OdpIeoZB1gtkTC5gq9g6-21" value="" style="group" vertex="1" connectable="0" parent="1">
          <mxGeometry x="840" y="800" width="120" height="80" as="geometry" />
        </mxCell>
        <mxCell id="OdpIeoZB1gtkTC5gq9g6-22" value="Sprawdzanie obecnośći" style="ellipse;whiteSpace=wrap;html=1;" vertex="1" parent="OdpIeoZB1gtkTC5gq9g6-21">
          <mxGeometry width="120" height="80" as="geometry" />
        </mxCell>
        <mxCell id="OdpIeoZB1gtkTC5gq9g6-23" value="" style="endArrow=none;html=1;rounded=0;endFill=0;entryX=0.994;entryY=0.406;entryDx=0;entryDy=0;entryPerimeter=0;exitX=0.579;exitY=0.997;exitDx=0;exitDy=0;exitPerimeter=0;" edge="1" parent="OdpIeoZB1gtkTC5gq9g6-21" source="OdpIeoZB1gtkTC5gq9g6-22" target="OdpIeoZB1gtkTC5gq9g6-22">
          <mxGeometry width="50" height="50" relative="1" as="geometry">
            <mxPoint x="70" y="80" as="sourcePoint" />
            <mxPoint x="120" y="30" as="targetPoint" />
          </mxGeometry>
        </mxCell>
        <mxCell id="OdpIeoZB1gtkTC5gq9g6-35" value="" style="group" vertex="1" connectable="0" parent="1">
          <mxGeometry x="810" y="530" width="120" height="80" as="geometry" />
        </mxCell>
        <mxCell id="OdpIeoZB1gtkTC5gq9g6-36" value="Losowanie ocen" style="ellipse;whiteSpace=wrap;html=1;" vertex="1" parent="OdpIeoZB1gtkTC5gq9g6-35">
          <mxGeometry width="120" height="80" as="geometry" />
        </mxCell>
        <mxCell id="OdpIeoZB1gtkTC5gq9g6-37" value="" style="endArrow=none;html=1;rounded=0;endFill=0;entryX=0.994;entryY=0.406;entryDx=0;entryDy=0;entryPerimeter=0;exitX=0.579;exitY=0.997;exitDx=0;exitDy=0;exitPerimeter=0;" edge="1" parent="OdpIeoZB1gtkTC5gq9g6-35" source="OdpIeoZB1gtkTC5gq9g6-36" target="OdpIeoZB1gtkTC5gq9g6-36">
          <mxGeometry width="50" height="50" relative="1" as="geometry">
            <mxPoint x="70" y="80" as="sourcePoint" />
            <mxPoint x="120" y="30" as="targetPoint" />
          </mxGeometry>
        </mxCell>
        <mxCell id="OdpIeoZB1gtkTC5gq9g6-38" value="" style="group" vertex="1" connectable="0" parent="1">
          <mxGeometry x="520" y="800" width="120" height="80" as="geometry" />
        </mxCell>
        <mxCell id="OdpIeoZB1gtkTC5gq9g6-39" value="Wprowadzanie ocen" style="ellipse;whiteSpace=wrap;html=1;" vertex="1" parent="OdpIeoZB1gtkTC5gq9g6-38">
          <mxGeometry width="120" height="80" as="geometry" />
        </mxCell>
        <mxCell id="OdpIeoZB1gtkTC5gq9g6-40" value="" style="endArrow=none;html=1;rounded=0;endFill=0;entryX=0.994;entryY=0.406;entryDx=0;entryDy=0;entryPerimeter=0;exitX=0.579;exitY=0.997;exitDx=0;exitDy=0;exitPerimeter=0;" edge="1" parent="OdpIeoZB1gtkTC5gq9g6-38" source="OdpIeoZB1gtkTC5gq9g6-39" target="OdpIeoZB1gtkTC5gq9g6-39">
          <mxGeometry width="50" height="50" relative="1" as="geometry">
            <mxPoint x="70" y="80" as="sourcePoint" />
            <mxPoint x="120" y="30" as="targetPoint" />
          </mxGeometry>
        </mxCell>
        <mxCell id="OdpIeoZB1gtkTC5gq9g6-53" value="" style="group" vertex="1" connectable="0" parent="1">
          <mxGeometry x="400" y="790" width="80" height="90" as="geometry" />
        </mxCell>
        <mxCell id="OdpIeoZB1gtkTC5gq9g6-54" value="&lt;div&gt;&lt;br&gt;&lt;/div&gt;&lt;div&gt;&lt;br&gt;&lt;/div&gt;&lt;div&gt;&lt;br&gt;&lt;/div&gt;&lt;div&gt;&lt;br&gt;&lt;/div&gt;&lt;div&gt;&lt;br&gt;&lt;/div&gt;&lt;div&gt;&lt;br&gt;&lt;/div&gt;&lt;div&gt;&lt;br&gt;&lt;/div&gt;&lt;div&gt;Dziekanat&lt;/div&gt;" style="ellipse;shape=umlControl;whiteSpace=wrap;html=1;" vertex="1" parent="OdpIeoZB1gtkTC5gq9g6-53">
          <mxGeometry width="80" height="90" as="geometry" />
        </mxCell>
        <mxCell id="OdpIeoZB1gtkTC5gq9g6-55" value="" style="shape=umlActor;verticalLabelPosition=bottom;verticalAlign=top;html=1;" vertex="1" parent="OdpIeoZB1gtkTC5gq9g6-53">
          <mxGeometry x="30" y="20" width="22.5" height="60" as="geometry" />
        </mxCell>
        <mxCell id="OdpIeoZB1gtkTC5gq9g6-56" value="" style="endArrow=none;html=1;rounded=0;endFill=0;entryX=1.001;entryY=0.441;entryDx=0;entryDy=0;entryPerimeter=0;exitX=0.5;exitY=1;exitDx=0;exitDy=0;" edge="1" parent="OdpIeoZB1gtkTC5gq9g6-53">
          <mxGeometry width="50" height="50" relative="1" as="geometry">
            <mxPoint x="40" y="90" as="sourcePoint" />
            <mxPoint x="80" y="45" as="targetPoint" />
            <Array as="points" />
          </mxGeometry>
        </mxCell>
        <mxCell id="OdpIeoZB1gtkTC5gq9g6-58" value="" style="group" vertex="1" connectable="0" parent="1">
          <mxGeometry x="640" y="670" width="80" height="90" as="geometry" />
        </mxCell>
        <mxCell id="OdpIeoZB1gtkTC5gq9g6-59" value="&lt;div&gt;&lt;br&gt;&lt;/div&gt;&lt;div&gt;&lt;br&gt;&lt;/div&gt;&lt;div&gt;&lt;br&gt;&lt;/div&gt;&lt;div&gt;&lt;br&gt;&lt;/div&gt;&lt;div&gt;&lt;br&gt;&lt;/div&gt;&lt;div&gt;&lt;br&gt;&lt;/div&gt;&lt;div&gt;&lt;br&gt;&lt;/div&gt;&lt;div&gt;Wykładowca&lt;/div&gt;" style="ellipse;shape=umlControl;whiteSpace=wrap;html=1;" vertex="1" parent="OdpIeoZB1gtkTC5gq9g6-58">
          <mxGeometry width="80" height="90" as="geometry" />
        </mxCell>
        <mxCell id="OdpIeoZB1gtkTC5gq9g6-60" value="" style="shape=umlActor;verticalLabelPosition=bottom;verticalAlign=top;html=1;" vertex="1" parent="OdpIeoZB1gtkTC5gq9g6-58">
          <mxGeometry x="30" y="20" width="22.5" height="60" as="geometry" />
        </mxCell>
        <mxCell id="OdpIeoZB1gtkTC5gq9g6-61" value="" style="endArrow=none;html=1;rounded=0;endFill=0;entryX=1.001;entryY=0.441;entryDx=0;entryDy=0;entryPerimeter=0;exitX=0.5;exitY=1;exitDx=0;exitDy=0;" edge="1" parent="OdpIeoZB1gtkTC5gq9g6-58">
          <mxGeometry width="50" height="50" relative="1" as="geometry">
            <mxPoint x="40" y="90" as="sourcePoint" />
            <mxPoint x="80" y="45" as="targetPoint" />
            <Array as="points" />
          </mxGeometry>
        </mxCell>
        <mxCell id="OdpIeoZB1gtkTC5gq9g6-67" value="&lt;font style=&quot;font-size: 17px;&quot;&gt;Uczelnia - obsługa studentów&lt;/font&gt;" style="text;html=1;whiteSpace=wrap;strokeColor=none;fillColor=none;align=center;verticalAlign=middle;rounded=0;" vertex="1" parent="1">
          <mxGeometry x="507" y="410" width="320" height="140" as="geometry" />
        </mxCell>
        <mxCell id="OdpIeoZB1gtkTC5gq9g6-73" style="rounded=0;orthogonalLoop=1;jettySize=auto;html=1;entryX=0.5;entryY=0;entryDx=0;entryDy=0;dashed=1;dashPattern=8 8;endArrow=open;endFill=0;" edge="1" parent="1" source="OdpIeoZB1gtkTC5gq9g6-59" target="OdpIeoZB1gtkTC5gq9g6-39">
          <mxGeometry relative="1" as="geometry" />
        </mxCell>
        <mxCell id="OdpIeoZB1gtkTC5gq9g6-74" style="rounded=0;orthogonalLoop=1;jettySize=auto;html=1;entryX=0.057;entryY=0.275;entryDx=0;entryDy=0;entryPerimeter=0;dashed=1;dashPattern=8 8;endArrow=open;endFill=0;" edge="1" parent="1" source="OdpIeoZB1gtkTC5gq9g6-54" target="OdpIeoZB1gtkTC5gq9g6-39">
          <mxGeometry relative="1" as="geometry" />
        </mxCell>
        <mxCell id="OdpIeoZB1gtkTC5gq9g6-77" style="rounded=0;orthogonalLoop=1;jettySize=auto;html=1;entryX=1;entryY=0.5;entryDx=0;entryDy=0;dashed=1;dashPattern=8 8;endArrow=open;endFill=0;" edge="1" parent="1" source="OdpIeoZB1gtkTC5gq9g6-59" target="OdpIeoZB1gtkTC5gq9g6-16">
          <mxGeometry relative="1" as="geometry" />
        </mxCell>
        <mxCell id="OdpIeoZB1gtkTC5gq9g6-78" style="rounded=0;orthogonalLoop=1;jettySize=auto;html=1;entryX=0.5;entryY=0;entryDx=0;entryDy=0;dashed=1;dashPattern=8 8;endArrow=open;endFill=0;" edge="1" parent="1" source="OdpIeoZB1gtkTC5gq9g6-54" target="OdpIeoZB1gtkTC5gq9g6-19">
          <mxGeometry relative="1" as="geometry" />
        </mxCell>
        <mxCell id="OdpIeoZB1gtkTC5gq9g6-79" style="rounded=0;orthogonalLoop=1;jettySize=auto;html=1;entryX=0;entryY=1;entryDx=0;entryDy=0;dashed=1;dashPattern=8 8;endArrow=open;endFill=0;" edge="1" parent="1" source="OdpIeoZB1gtkTC5gq9g6-59" target="OdpIeoZB1gtkTC5gq9g6-36">
          <mxGeometry relative="1" as="geometry" />
        </mxCell>
        <mxCell id="OdpIeoZB1gtkTC5gq9g6-80" style="rounded=0;orthogonalLoop=1;jettySize=auto;html=1;entryX=0;entryY=0;entryDx=0;entryDy=0;dashed=1;dashPattern=8 8;endArrow=open;endFill=0;" edge="1" parent="1" source="OdpIeoZB1gtkTC5gq9g6-59" target="OdpIeoZB1gtkTC5gq9g6-8">
          <mxGeometry relative="1" as="geometry" />
        </mxCell>
        <mxCell id="OdpIeoZB1gtkTC5gq9g6-81" style="rounded=0;orthogonalLoop=1;jettySize=auto;html=1;entryX=0;entryY=0;entryDx=0;entryDy=0;dashed=1;dashPattern=8 8;endArrow=open;endFill=0;" edge="1" parent="1" source="OdpIeoZB1gtkTC5gq9g6-59" target="OdpIeoZB1gtkTC5gq9g6-22">
          <mxGeometry relative="1" as="geometry" />
        </mxCell>
        <mxCell id="OdpIeoZB1gtkTC5gq9g6-82" style="rounded=0;orthogonalLoop=1;jettySize=auto;html=1;entryX=0.5;entryY=0;entryDx=0;entryDy=0;dashed=1;dashPattern=8 8;endArrow=open;endFill=0;" edge="1" parent="1" source="OdpIeoZB1gtkTC5gq9g6-54" target="OdpIeoZB1gtkTC5gq9g6-65">
          <mxGeometry relative="1" as="geometry" />
        </mxCell>
        <mxCell id="OdpIeoZB1gtkTC5gq9g6-64" value="" style="group" vertex="1" connectable="0" parent="1">
          <mxGeometry x="540" y="960" width="120" height="80" as="geometry" />
        </mxCell>
        <mxCell id="OdpIeoZB1gtkTC5gq9g6-65" value="Aktualizacja danych studentów" style="ellipse;whiteSpace=wrap;html=1;" vertex="1" parent="OdpIeoZB1gtkTC5gq9g6-64">
          <mxGeometry width="120" height="80" as="geometry" />
        </mxCell>
        <mxCell id="OdpIeoZB1gtkTC5gq9g6-66" value="" style="endArrow=none;html=1;rounded=0;endFill=0;entryX=0.994;entryY=0.406;entryDx=0;entryDy=0;entryPerimeter=0;exitX=0.579;exitY=0.997;exitDx=0;exitDy=0;exitPerimeter=0;" edge="1" parent="OdpIeoZB1gtkTC5gq9g6-64" source="OdpIeoZB1gtkTC5gq9g6-65" target="OdpIeoZB1gtkTC5gq9g6-65">
          <mxGeometry width="50" height="50" relative="1" as="geometry">
            <mxPoint x="70" y="80" as="sourcePoint" />
            <mxPoint x="120" y="30" as="targetPoint" />
          </mxGeometry>
        </mxCell>
        <mxCell id="OdpIeoZB1gtkTC5gq9g6-84" style="rounded=0;orthogonalLoop=1;jettySize=auto;html=1;entryX=0;entryY=0.5;entryDx=0;entryDy=0;endArrow=none;endFill=0;" edge="1" parent="1" source="OdpIeoZB1gtkTC5gq9g6-83" target="OdpIeoZB1gtkTC5gq9g6-13">
          <mxGeometry relative="1" as="geometry" />
        </mxCell>
        <mxCell id="OdpIeoZB1gtkTC5gq9g6-85" style="rounded=0;orthogonalLoop=1;jettySize=auto;html=1;entryX=0;entryY=0.5;entryDx=0;entryDy=0;endArrow=none;endFill=0;" edge="1" parent="1" source="OdpIeoZB1gtkTC5gq9g6-83" target="OdpIeoZB1gtkTC5gq9g6-16">
          <mxGeometry relative="1" as="geometry" />
        </mxCell>
        <mxCell id="OdpIeoZB1gtkTC5gq9g6-83" value="Student" style="shape=umlActor;verticalLabelPosition=bottom;verticalAlign=top;html=1;" vertex="1" parent="1">
          <mxGeometry x="180" y="594" width="30" height="60" as="geometry" />
        </mxCell>
      </root>
    </mxGraphModel>
  </diagram>
</mxfile>
